<svg width="194" height="42" viewBox="0 0 194 42" fill="none" xmlns="http://www.w3.org/2000/svg">
<path d="M22.236 15.0129C23.2831 14.4083 24.9809 14.4083 26.0281 15.0129L46.3439 26.7412C47.391 27.3457 47.391 28.3258 46.3439 28.9304L26.0281 40.6587C24.9809 41.2632 23.2831 41.2632 22.236 40.6587L1.92016 28.9304C0.873002 28.3258 0.873001 27.3457 1.92016 26.7412L22.236 15.0129Z" fill="#A2A2A2"/>
<path d="M22.2119 8.38743C23.259 7.78291 24.9568 7.78291 26.004 8.38743L46.3198 20.1158C47.3669 20.7203 47.3669 21.7004 46.3198 22.3049L26.004 34.0332C24.9568 34.6378 23.259 34.6378 22.2119 34.0332L1.89605 22.3049C0.848893 21.7004 0.848892 20.7203 1.89605 20.1158L22.2119 8.38743Z" fill="#CBCBCB"/>
<path d="M22.2119 1.09459C23.259 0.490064 24.9568 0.490063 26.004 1.09459L46.3198 12.8229C47.3669 13.4274 47.3669 14.4076 46.3198 15.0121L26.004 26.7404C24.9568 27.3449 23.259 27.3449 22.2119 26.7404L1.89605 15.0121C0.848892 14.4076 0.848891 13.4274 1.89605 12.8229L22.2119 1.09459Z" fill="#EBEBEB"/>
<path d="M65.4163 32L57.2457 11.79H60.8546L67.2352 28.1601H65.9649L72.4032 11.79H75.9544L67.726 32H65.4163ZM81.4568 32.2887C80.2057 32.2887 79.0701 31.9711 78.05 31.336C77.0491 30.7008 76.2504 29.8443 75.6537 28.7664C75.0763 27.6693 74.7875 26.4471 74.7875 25.0997C74.7875 23.7332 75.0763 22.5109 75.6537 21.4331C76.2504 20.336 77.0491 19.4698 78.05 18.8346C79.0701 18.1802 80.2057 17.853 81.4568 17.853C82.5155 17.853 83.449 18.084 84.2574 18.5459C85.085 18.9886 85.7394 19.6045 86.2206 20.3937C86.7018 21.1828 86.9424 22.0779 86.9424 23.0787V27.063C86.9424 28.0639 86.7018 28.9589 86.2206 29.748C85.7587 30.5372 85.1139 31.1627 84.2862 31.6247C83.4586 32.0674 82.5155 32.2887 81.4568 32.2887ZM81.9765 29.2861C83.1506 29.2861 84.0938 28.8915 84.8059 28.1024C85.5373 27.3132 85.903 26.3027 85.903 25.0709C85.903 24.2432 85.7394 23.5118 85.4122 22.8766C85.085 22.2415 84.6231 21.7507 84.0264 21.4042C83.449 21.0385 82.7657 20.8556 81.9765 20.8556C81.2066 20.8556 80.5233 21.0385 79.9267 21.4042C79.3492 21.7507 78.8873 22.2415 78.5408 22.8766C78.2136 23.5118 78.05 24.2432 78.05 25.0709C78.05 25.8985 78.2136 26.6299 78.5408 27.2651C78.8873 27.9003 79.3492 28.4007 79.9267 28.7664C80.5233 29.1129 81.2066 29.2861 81.9765 29.2861ZM85.7009 32V28.2756L86.2495 24.8976L85.7009 21.5486V18.1417H88.8768V32H85.7009ZM101.9 32V24.0026C101.9 23.0787 101.602 22.3185 101.005 21.7218C100.428 21.1251 99.677 20.8268 98.7531 20.8268C98.1371 20.8268 97.5886 20.9615 97.1074 21.231C96.6262 21.5004 96.2509 21.8758 95.9814 22.357C95.7119 22.8381 95.5772 23.3867 95.5772 24.0026L94.3357 23.3097C94.3357 22.2511 94.5667 21.3176 95.0287 20.5092C95.4906 19.6815 96.1258 19.0367 96.9342 18.5748C97.7618 18.0936 98.6857 17.853 99.7058 17.853C100.745 17.853 101.669 18.1225 102.477 18.6614C103.286 19.1811 103.921 19.8644 104.383 20.7113C104.845 21.5389 105.076 22.4051 105.076 23.3097V32H101.9ZM92.4014 32V18.1417H95.5772V32H92.4014ZM114.684 32.2887C113.317 32.2887 112.076 31.9711 110.959 31.336C109.862 30.7008 108.996 29.8346 108.361 28.7375C107.726 27.6404 107.408 26.4182 107.408 25.0709C107.408 23.7043 107.726 22.4821 108.361 21.4042C108.996 20.3071 109.862 19.4409 110.959 18.8058C112.076 18.1706 113.317 17.853 114.684 17.853C115.762 17.853 116.763 18.0647 117.686 18.4882C118.63 18.8924 119.428 19.4794 120.083 20.2493L118.004 22.357C117.6 21.8758 117.109 21.5197 116.532 21.2887C115.973 21.0385 115.357 20.9134 114.684 20.9134C113.895 20.9134 113.192 21.0962 112.576 21.4619C111.979 21.8084 111.508 22.2896 111.161 22.9055C110.834 23.5214 110.671 24.2432 110.671 25.0709C110.671 25.8793 110.834 26.601 111.161 27.2362C111.508 27.8521 111.979 28.343 112.576 28.7087C113.192 29.0551 113.895 29.2283 114.684 29.2283C115.357 29.2283 115.973 29.1129 116.532 28.8819C117.109 28.6317 117.6 28.266 118.004 27.7848L120.083 29.8924C119.428 30.6623 118.63 31.259 117.686 31.6824C116.763 32.0866 115.762 32.2887 114.684 32.2887ZM128.442 32.2887C127.095 32.2887 125.873 31.9711 124.775 31.336C123.678 30.6815 122.803 29.8058 122.148 28.7087C121.513 27.6115 121.195 26.3893 121.195 25.042C121.195 23.6947 121.513 22.4821 122.148 21.4042C122.803 20.3263 123.678 19.4698 124.775 18.8346C125.873 18.1802 127.095 17.853 128.442 17.853C129.809 17.853 131.041 18.1706 132.138 18.8058C133.235 19.4409 134.101 20.3071 134.736 21.4042C135.391 22.4821 135.718 23.6947 135.718 25.042C135.718 26.3893 135.391 27.6115 134.736 28.7087C134.101 29.8058 133.235 30.6815 132.138 31.336C131.041 31.9711 129.809 32.2887 128.442 32.2887ZM128.442 29.2283C129.231 29.2283 129.924 29.0551 130.521 28.7087C131.137 28.343 131.608 27.8425 131.936 27.2073C132.282 26.5722 132.455 25.8504 132.455 25.042C132.455 24.2336 132.282 23.5214 131.936 22.9055C131.589 22.2896 131.118 21.8084 130.521 21.4619C129.924 21.0962 129.231 20.9134 128.442 20.9134C127.672 20.9134 126.979 21.0962 126.363 21.4619C125.767 21.8084 125.295 22.2896 124.949 22.9055C124.621 23.5214 124.458 24.2336 124.458 25.042C124.458 25.8504 124.621 26.5722 124.949 27.2073C125.295 27.8425 125.767 28.343 126.363 28.7087C126.979 29.0551 127.672 29.2283 128.442 29.2283ZM144.046 32.2887C142.872 32.2887 141.823 32.0289 140.899 31.5092C139.995 30.9895 139.283 30.2773 138.763 29.3727C138.263 28.4488 138.012 27.3902 138.012 26.1968V18.1417H141.188V26.0525C141.188 26.7262 141.294 27.3036 141.506 27.7848C141.737 28.2467 142.064 28.6028 142.487 28.853C142.93 29.1032 143.45 29.2283 144.046 29.2283C144.97 29.2283 145.673 28.9589 146.154 28.4199C146.654 27.8618 146.905 27.0726 146.905 26.0525V18.1417H150.081V26.1968C150.081 27.4094 149.821 28.4777 149.301 29.4016C148.801 30.3062 148.098 31.0184 147.193 31.5381C146.289 32.0385 145.24 32.2887 144.046 32.2887ZM157.951 32L151.628 18.1417H155.15L159.972 29.4304H157.893L162.744 18.1417H166.122L159.799 32H157.951ZM173.979 32.2887C172.593 32.2887 171.342 31.9808 170.225 31.3648C169.128 30.7297 168.252 29.8635 167.598 28.7664C166.963 27.6693 166.645 26.4374 166.645 25.0709C166.645 23.7043 166.963 22.4821 167.598 21.4042C168.233 20.3071 169.09 19.4409 170.168 18.8058C171.265 18.1706 172.477 17.853 173.805 17.853C175.095 17.853 176.231 18.1513 177.212 18.748C178.213 19.3447 178.993 20.1627 179.551 21.2021C180.128 22.2415 180.417 23.4252 180.417 24.7533C180.417 24.9842 180.398 25.2248 180.359 25.4751C180.34 25.706 180.301 25.9659 180.244 26.2546H168.868V23.6562H178.598L177.414 24.6955C177.376 23.8486 177.212 23.1365 176.924 22.5591C176.635 21.9816 176.221 21.5389 175.682 21.231C175.162 20.923 174.518 20.769 173.748 20.769C172.939 20.769 172.237 20.9423 171.64 21.2887C171.043 21.6352 170.581 22.126 170.254 22.7611C169.927 23.3771 169.763 24.1181 169.763 24.9842C169.763 25.8504 169.937 26.6107 170.283 27.2651C170.63 27.9195 171.12 28.4296 171.756 28.7953C172.391 29.1417 173.122 29.315 173.95 29.315C174.662 29.315 175.316 29.1898 175.913 28.9396C176.529 28.6894 177.049 28.3237 177.472 27.8425L179.493 29.8924C178.819 30.6815 178.001 31.2782 177.039 31.6824C176.077 32.0866 175.057 32.2887 173.979 32.2887ZM182.963 32V18.1417H186.139V32H182.963ZM186.139 24.2913L185.042 23.7428C185.042 21.9912 185.427 20.5765 186.196 19.4987C186.986 18.4016 188.169 17.853 189.748 17.853C190.441 17.853 191.066 17.9781 191.624 18.2283C192.182 18.4786 192.702 18.8828 193.183 19.4409L191.105 21.5774C190.854 21.308 190.575 21.1155 190.267 21C189.959 20.8845 189.603 20.8268 189.199 20.8268C188.314 20.8268 187.582 21.1059 187.005 21.664C186.427 22.2222 186.139 23.098 186.139 24.2913Z" fill="url(#paint0_linear_37_104)"/>
<defs>
<linearGradient id="paint0_linear_37_104" x1="56.5096" y1="20.4856" x2="193.51" y2="20.4856" gradientUnits="userSpaceOnUse">
<stop stop-color="#DEC880"/>
<stop offset="0.155674" stop-color="white"/>
<stop offset="0.567708" stop-color="#FF347D"/>
<stop offset="1" stop-color="#827DED"/>
</linearGradient>
</defs>
</svg>
